<?xml version="1.0" encoding="utf-8"?>
<svg viewBox="3.92 5.834 40.251 36.879" xmlns="http://www.w3.org/2000/svg">
  <path fill="#FF3D00" d="M 43.2 33.9 C 42.8 36 41.1 37.6 39 37.9 C 35.7 38.4 30.2 39 24 39 C 17.9 39 12.4 38.4 9 37.9 C 6.9 37.6 5.2 36 4.8 33.9 C 4.4 31.6 4 28.2 4 24 C 4 19.8 4.4 16.4 4.8 14.1 C 5.2 12 6.9 10.4 9 10.1 C 12.3 9.6 17.8 9 24 9 C 30.2 9 35.6 9.6 39 10.1 C 41.1 10.4 42.8 12 43.2 14.1 C 43.6 16.4 44.1 19.8 44.1 24 C 44 28.2 43.6 31.6 43.2 33.9 Z M 32 24 L 20 17 L 20 31 L 32 24 Z"/>
</svg>