<svg viewBox="-1 -1 40 40" fill="none" xmlns="http://www.w3.org/2000/svg" data-darkreader-inline-invert="">
  <g clip-path="url(#clip0_723_1352)">
      <path d="M33.1921 14.2473C32.5203 14.2473 31.9757 14.7919 31.9757 15.4638C31.9757 25.4739 23.861 33.5886 13.8509 33.5886C13.179 33.5886 12.6344 34.1332 12.6344 34.8051C12.6344 35.4769 13.179 36.0215 13.8509 36.0215C25.2046 36.0215 34.4086 26.8175 34.4086 15.4638C34.4086 14.7919 33.864 14.2473 33.1921 14.2473Z" fill="#005EB8"></path>
      <path d="M25.8502 22.0429C27.02 20.1346 28.1514 17.5901 27.9288 14.0279C27.4677 6.64898 20.7844 1.05116 14.4735 1.65781C12.0029 1.8953 9.46604 3.90914 9.69142 7.51629C9.78938 9.08382 10.5566 10.009 11.8035 10.7203C12.9902 11.3973 14.515 11.8262 16.2435 12.3123C18.3313 12.8996 20.7532 13.5592 22.6146 14.9309C24.8455 16.5749 26.3705 18.4807 25.8502 22.0429Z" fill="#003B5C"></path>
      <path d="M2.10678 9.13989C0.936968 11.0482 -0.194358 13.5927 0.0282221 17.1549C0.489286 24.5338 7.17263 30.1316 13.4835 29.525C15.9541 29.2875 18.491 27.2737 18.2656 23.6665C18.1676 22.099 17.4004 21.1738 16.1535 20.4625C14.9668 19.7855 13.442 19.3566 11.7135 18.8705C9.6257 18.2832 7.20382 17.6236 5.34245 16.2519C3.11154 14.6079 1.58652 12.7021 2.10678 9.13989Z" fill="#005EB8"></path>
      
  </g>
</svg>