<?xml version="1.0" standalone="no"?>
<!DOCTYPE svg PUBLIC "-//W3C//DTD SVG 20010904//EN"
 "http://www.w3.org/TR/2001/REC-SVG-20010904/DTD/svg10.dtd">
<svg version="1.0" xmlns="http://www.w3.org/2000/svg"
 width="700.000000pt" height="700.000000pt" viewBox="0 0 700.000000 700.000000"
 preserveAspectRatio="xMidYMid meet">
<metadata>
Created by potrace 1.14, written by Peter Selinger 2001-2017
</metadata>
<g transform="translate(0.000000,700.000000) scale(0.100000,-0.100000)"
fill="#000000" stroke="none">
<path d="M3130 6955 c-567 -65 -1089 -253 -1545 -556 -220 -147 -353 -256
-540 -443 -293 -293 -480 -554 -660 -921 -177 -360 -272 -673 -332 -1096 -25
-177 -25 -701 0 -878 61 -427 155 -737 337 -1106 108 -219 255 -451 406 -640
113 -142 378 -407 519 -519 553 -440 1198 -698 1893 -757 178 -15 581 -6 742
16 398 54 727 154 1085 330 370 181 676 403 955 692 566 584 903 1324 971
2131 15 179 6 582 -16 742 -53 382 -153 722 -311 1050 -171 354 -372 643 -644
923 -279 289 -584 510 -955 692 -355 175 -682 274 -1085 331 -162 22 -652 28
-820 9z m670 -196 c1347 -124 2473 -1055 2846 -2354 39 -136 75 -305 101 -480
25 -172 25 -678 0 -850 -60 -403 -153 -705 -323 -1045 -336 -672 -875 -1191
-1569 -1511 -268 -124 -559 -208 -895 -261 -128 -19 -183 -22 -460 -22 -277 0
-332 3 -460 22 -392 61 -705 161 -1034 330 -634 326 -1119 816 -1435 1452
-166 333 -259 637 -318 1035 -25 172 -25 678 0 850 60 403 153 705 323 1045
315 629 808 1127 1431 1443 380 192 768 306 1179 346 130 12 481 13 614 0z"/>
<path d="M4482 5639 c-177 -88 -115 -353 83 -353 120 0 214 115 184 227 -32
121 -157 180 -267 126z"/>
<path d="M4175 5138 c-267 -410 -709 -779 -1192 -996 -195 -88 -557 -202 -640
-202 -13 0 -23 -5 -23 -10 0 -16 32 -275 34 -277 1 -1 56 9 123 22 136 28 382
105 530 166 234 97 518 260 716 410 42 33 77 57 77 54 0 -3 -18 -64 -40 -136
-38 -124 -143 -519 -172 -644 l-14 -60 -198 -102 c-457 -236 -749 -435 -981
-667 -196 -196 -298 -384 -346 -636 -20 -103 -15 -300 10 -393 93 -351 390
-502 750 -381 278 93 439 253 602 599 103 220 190 495 315 1005 47 190 88 351
92 358 24 44 753 314 980 362 28 7 52 17 52 23 0 7 -12 70 -27 140 l-28 128
-35 -6 c-125 -24 -581 -174 -774 -256 -37 -16 -72 -29 -76 -29 -15 0 108 442
188 680 91 268 203 513 307 671 36 55 66 104 68 108 2 8 -201 147 -227 157 -6
2 -38 -38 -71 -88z m-695 -2054 c0 -22 -128 -509 -170 -649 -122 -403 -266
-680 -407 -787 -89 -67 -233 -118 -335 -118 -69 0 -143 36 -179 88 -88 125
-91 368 -7 571 111 265 408 526 933 818 144 80 165 90 165 77z"/>
</g>
</svg>
