<?xml version="1.0" standalone="no"?>
<!DOCTYPE svg PUBLIC "-//W3C//DTD SVG 20010904//EN"
 "http://www.w3.org/TR/2001/REC-SVG-20010904/DTD/svg10.dtd">
<svg version="1.0" xmlns="http://www.w3.org/2000/svg"
 width="700.000000pt" height="700.000000pt" viewBox="0 0 700.000000 700.000000"
 preserveAspectRatio="xMidYMid meet">
<metadata>
Created by potrace 1.14, written by Peter Selinger 2001-2017
</metadata>
<g transform="translate(0.000000,700.000000) scale(0.100000,-0.100000)"
fill="#000000" stroke="none">
<path d="M3280 6994 c-19 -2 -84 -9 -145 -14 -578 -56 -1180 -283 -1660 -625
-237 -169 -531 -446 -709 -670 -416 -521 -673 -1147 -748 -1820 -17 -155 -17
-575 0 -730 52 -469 198 -931 418 -1327 290 -523 731 -983 1239 -1294 439
-269 920 -432 1460 -496 145 -17 576 -17 730 0 822 91 1556 447 2131 1034 203
206 348 390 487 618 274 449 433 916 499 1465 16 136 16 592 0 730 -86 725
-352 1347 -803 1885 -122 145 -351 370 -494 484 -510 407 -1117 661 -1775 742
-117 15 -553 27 -630 18z m1600 -1935 c159 -75 237 -257 173 -401 -32 -70
-103 -141 -176 -174 -53 -25 -74 -29 -147 -29 -105 1 -157 22 -234 95 -69 65
-99 131 -99 220 0 146 76 254 213 304 70 25 200 18 270 -15z m-1580 -342 c0
-11 -1198 -2597 -1209 -2609 -8 -9 -541 211 -541 223 0 7 1214 2631 1226 2651
7 11 524 -251 524 -265z m1758 -1524 l-3 -998 -28 -88 c-49 -156 -107 -249
-221 -354 -146 -134 -363 -202 -604 -190 -128 6 -211 27 -316 77 -73 34 -200
126 -259 187 l-37 39 151 200 c83 109 158 207 166 216 25 27 47 6 66 -61 32
-114 123 -182 255 -189 40 -2 88 -1 107 2 46 9 98 56 121 109 18 39 19 88 22
820 l3 777 -316 0 -315 0 0 225 0 225 605 0 606 0 -3 -997z"/>
</g>
</svg>
