<?xml version="1.0" standalone="no"?>
<!DOCTYPE svg PUBLIC "-//W3C//DTD SVG 20010904//EN"
 "http://www.w3.org/TR/2001/REC-SVG-20010904/DTD/svg10.dtd">
<svg version="1.0" xmlns="http://www.w3.org/2000/svg"
 width="700.000000pt" height="700.000000pt" viewBox="0 0 700.000000 700.000000"
 preserveAspectRatio="xMidYMid meet">
<metadata>
Created by potrace 1.14, written by Peter Selinger 2001-2017
</metadata>
<g transform="translate(0.000000,700.000000) scale(0.100000,-0.100000)"
fill="#000000" stroke="none">
<path d="M3260 6919 c-769 -51 -1503 -367 -2085 -897 -445 -405 -791 -963
-964 -1556 -183 -625 -183 -1307 0 -1932 206 -704 631 -1322 1214 -1764 648
-491 1463 -740 2263 -691 493 30 899 136 1327 346 862 422 1504 1186 1774
2109 183 625 183 1307 0 1932 -173 593 -519 1151 -964 1556 -706 643 -1613
960 -2565 897z m680 -458 c528 -81 1016 -293 1430 -621 137 -108 365 -337 474
-475 47 -60 86 -113 86 -117 0 -5 -28 -6 -62 -3 -721 66 -1183 88 -1364 66
-448 -56 -781 -276 -898 -593 -18 -48 -38 -61 -53 -34 -13 22 -46 34 -70 25
-39 -14 -83 -86 -83 -136 0 -80 46 -136 128 -155 45 -11 52 -16 52 -38 0 -14
12 -56 25 -95 14 -38 25 -85 25 -102 0 -32 -1 -33 -42 -33 -48 0 -121 -30
-156 -63 -30 -27 -66 -98 -82 -157 -19 -77 -21 -80 -37 -80 -9 0 -36 11 -60
25 l-43 26 0 -63 c0 -98 10 -136 42 -168 125 -126 445 -17 517 175 29 76 28
139 -1 159 l-22 16 21 0 c12 0 24 4 27 9 3 5 21 -5 38 -22 75 -69 243 -114
389 -103 118 9 187 28 295 81 73 36 104 58 156 114 36 38 81 97 99 131 29 55
78 110 98 110 4 0 15 -16 25 -36 16 -34 19 -36 55 -31 l39 5 -63 -97 c-119
-184 -244 -399 -518 -892 -289 -521 -390 -692 -542 -924 -288 -439 -578 -732
-896 -908 l-66 -36 -20 22 c-35 39 -35 46 1 78 54 47 45 94 -29 139 -43 27
-112 28 -170 5 -79 -33 -108 -80 -108 -170 0 -64 14 -100 59 -154 l26 -31 -34
0 c-18 0 -69 -8 -113 -17 -118 -24 -440 -24 -553 0 -156 34 -256 75 -365 149
-434 294 -562 914 -297 1450 72 146 134 233 239 338 107 106 148 127 269 137
l62 6 0 -41 c0 -122 98 -245 240 -303 79 -32 140 -75 140 -98 0 -6 -14 -26
-31 -46 l-31 -35 58 -26 c82 -36 134 -35 181 3 59 47 86 112 91 216 12 249
-111 470 -300 537 -43 15 -47 18 -26 24 13 4 93 9 178 13 119 4 176 2 247 -11
184 -32 334 -104 460 -221 121 -111 190 -225 238 -390 55 -190 37 -433 -33
-443 -20 -3 -22 1 -22 45 0 68 -15 85 -82 91 -50 4 -58 2 -91 -27 -44 -39 -61
-87 -55 -157 l5 -54 -62 0 c-117 0 -239 -47 -322 -123 -58 -53 -84 -107 -91
-183 -4 -51 0 -71 20 -115 42 -90 127 -159 161 -131 6 6 23 38 37 71 33 79 57
89 176 71 114 -18 233 -8 317 25 126 51 215 166 225 292 l5 63 -34 0 -34 0 28
18 c62 41 99 121 113 243 l7 60 57 -7 c102 -11 199 39 229 119 25 66 3 178
-40 205 -11 7 -39 14 -62 14 -34 0 -46 -5 -69 -31 -30 -34 -55 -38 -96 -17
-38 19 -57 44 -72 91 -48 154 -136 299 -257 425 -141 148 -312 254 -447 280
l-64 12 16 28 c9 15 31 36 49 45 18 10 51 42 74 71 130 169 111 379 -55 591
-72 92 -135 127 -229 127 l-67 0 -75 -74 c-41 -41 -75 -77 -75 -81 0 -4 17
-10 38 -13 20 -4 54 -12 76 -17 37 -10 38 -12 33 -44 -3 -19 -23 -72 -43 -117
-34 -75 -38 -91 -38 -168 0 -91 25 -169 65 -206 10 -9 19 -21 19 -25 0 -13
-97 -40 -122 -34 -46 12 -319 -15 -427 -41 -468 -115 -829 -405 -1038 -834
-114 -235 -166 -440 -167 -667 -1 -79 -2 -143 -4 -143 -8 0 -79 169 -118 285
-57 166 -108 372 -136 550 -19 121 -22 181 -22 435 0 254 3 314 22 435 84 538
293 1019 622 1435 106 135 335 364 470 470 417 331 919 547 1435 620 198 28
202 28 485 25 195 -3 287 -8 390 -24z m1374 -1402 c159 -16 298 -29 310 -29
18 -1 16 -5 -14 -28 -113 -86 -347 -341 -475 -515 -52 -72 -55 -72 -69 -5 -15
67 -95 121 -182 120 l-52 0 -11 60 c-30 172 -148 290 -291 290 -81 0 -136 -32
-173 -100 -67 -124 -34 -232 72 -232 15 0 36 7 47 15 31 23 57 18 97 -21 44
-43 51 -65 45 -143 -9 -121 -104 -248 -234 -312 -61 -30 -78 -34 -149 -34 -71
0 -89 4 -140 30 -172 88 -227 338 -120 550 93 183 295 321 535 365 189 35 377
32 804 -11z m865 -239 c210 -428 304 -833 304 -1320 0 -308 -34 -558 -112
-830 -104 -361 -304 -748 -537 -1040 -87 -109 -355 -377 -464 -464 -292 -233
-679 -433 -1040 -537 -272 -78 -522 -112 -830 -112 -496 0 -905 96 -1340 315
-162 81 -359 197 -335 198 6 0 62 -10 125 -21 96 -18 155 -22 350 -23 312 -1
454 20 712 104 525 170 1036 611 1416 1221 135 215 295 523 522 1004 325 687
488 978 709 1265 96 125 293 318 371 363 35 20 66 37 68 37 1 0 38 -72 81
-160z m-4199 -1254 c0 -3 -4 -8 -10 -11 -5 -3 -10 -1 -10 4 0 6 5 11 10 11 6
0 10 -2 10 -4z"/>
</g>
</svg>
